<svg width="204" height="50" viewBox="0 0 204 50" fill="none" xmlns="http://www.w3.org/2000/svg">
<path d="M70.82 36V15H79.46C81.32 15 82.91 15.3 84.23 15.9C85.57 16.5 86.6 17.36 87.32 18.48C88.04 19.6 88.4 20.93 88.4 22.47C88.4 24.01 88.04 25.34 87.32 26.46C86.6 27.58 85.57 28.44 84.23 29.04C82.91 29.64 81.32 29.94 79.46 29.94H72.98L74.72 28.11V36H70.82ZM74.72 28.53L72.98 26.64H79.28C81 26.64 82.29 26.28 83.15 25.56C84.03 24.82 84.47 23.79 84.47 22.47C84.47 21.13 84.03 20.1 83.15 19.38C82.29 18.66 81 18.3 79.28 18.3H72.98L74.72 16.38V28.53ZM92.8276 36V19.98H96.5776V36H92.8276ZM94.7176 17.34C94.0176 17.34 93.4376 17.12 92.9776 16.68C92.5376 16.24 92.3176 15.71 92.3176 15.09C92.3176 14.45 92.5376 13.92 92.9776 13.5C93.4376 13.06 94.0176 12.84 94.7176 12.84C95.4176 12.84 95.9876 13.05 96.4276 13.47C96.8876 13.87 97.1176 14.38 97.1176 15C97.1176 15.66 96.8976 16.22 96.4576 16.68C96.0176 17.12 95.4376 17.34 94.7176 17.34ZM109.449 36.21C107.769 36.21 106.269 35.86 104.949 35.16C103.649 34.44 102.629 33.46 101.889 32.22C101.149 30.98 100.779 29.57 100.779 27.99C100.779 26.39 101.149 24.98 101.889 23.76C102.629 22.52 103.649 21.55 104.949 20.85C106.269 20.15 107.769 19.8 109.449 19.8C111.009 19.8 112.379 20.12 113.559 20.76C114.759 21.38 115.669 22.3 116.289 23.52L113.409 25.2C112.929 24.44 112.339 23.88 111.639 23.52C110.959 23.16 110.219 22.98 109.419 22.98C108.499 22.98 107.669 23.18 106.929 23.58C106.189 23.98 105.609 24.56 105.189 25.32C104.769 26.06 104.559 26.95 104.559 27.99C104.559 29.03 104.769 29.93 105.189 30.69C105.609 31.43 106.189 32 106.929 32.4C107.669 32.8 108.499 33 109.419 33C110.219 33 110.959 32.82 111.639 32.46C112.339 32.1 112.929 31.54 113.409 30.78L116.289 32.46C115.669 33.66 114.759 34.59 113.559 35.25C112.379 35.89 111.009 36.21 109.449 36.21ZM123.045 32.43L123.135 27.72L131.505 19.98H136.005L128.895 27.12L126.915 28.77L123.045 32.43ZM119.985 36V13.74H123.735V36H119.985ZM132.075 36L126.225 28.77L128.595 25.77L136.635 36H132.075ZM140.069 42.03C139.289 42.03 138.509 41.9 137.729 41.64C136.949 41.38 136.299 41.02 135.779 40.56L137.279 37.8C137.659 38.14 138.089 38.41 138.569 38.61C139.049 38.81 139.539 38.91 140.039 38.91C140.719 38.91 141.269 38.74 141.689 38.4C142.109 38.06 142.499 37.49 142.859 36.69L143.789 34.59L144.089 34.14L150.149 19.98H153.749L146.249 37.29C145.749 38.49 145.189 39.44 144.569 40.14C143.969 40.84 143.289 41.33 142.529 41.61C141.789 41.89 140.969 42.03 140.069 42.03ZM143.369 36.57L136.139 19.98H140.039L145.919 33.81L143.369 36.57Z" fill="#160C87"/>
<path d="M157.052 36V15H165.692C167.552 15 169.142 15.3 170.462 15.9C171.802 16.5 172.832 17.36 173.552 18.48C174.272 19.6 174.632 20.93 174.632 22.47C174.632 24.01 174.272 25.34 173.552 26.46C172.832 27.58 171.802 28.44 170.462 29.04C169.142 29.64 167.552 29.94 165.692 29.94H159.212L160.952 28.11V36H157.052ZM160.952 28.53L159.212 26.64H165.512C167.232 26.64 168.522 26.28 169.382 25.56C170.262 24.82 170.702 23.79 170.702 22.47C170.702 21.13 170.262 20.1 169.382 19.38C168.522 18.66 167.232 18.3 165.512 18.3H159.212L160.952 16.38V28.53ZM188.491 36V32.76L188.281 32.07V26.4C188.281 25.3 187.951 24.45 187.291 23.85C186.631 23.23 185.631 22.92 184.291 22.92C183.391 22.92 182.501 23.06 181.621 23.34C180.761 23.62 180.031 24.01 179.431 24.51L177.961 21.78C178.821 21.12 179.841 20.63 181.021 20.31C182.221 19.97 183.461 19.8 184.741 19.8C187.061 19.8 188.851 20.36 190.111 21.48C191.391 22.58 192.031 24.29 192.031 26.61V36H188.491ZM183.451 36.21C182.251 36.21 181.201 36.01 180.301 35.61C179.401 35.19 178.701 34.62 178.201 33.9C177.721 33.16 177.481 32.33 177.481 31.41C177.481 30.51 177.691 29.7 178.111 28.98C178.551 28.26 179.261 27.69 180.241 27.27C181.221 26.85 182.521 26.64 184.141 26.64H188.791V29.13H184.411C183.131 29.13 182.271 29.34 181.831 29.76C181.391 30.16 181.171 30.66 181.171 31.26C181.171 31.94 181.441 32.48 181.981 32.88C182.521 33.28 183.271 33.48 184.231 33.48C185.151 33.48 185.971 33.27 186.691 32.85C187.431 32.43 187.961 31.81 188.281 30.99L188.911 33.24C188.551 34.18 187.901 34.91 186.961 35.43C186.041 35.95 184.871 36.21 183.451 36.21ZM197.443 36V13.74H201.193V36H197.443Z" fill="#FE7467"/>
<circle cx="25" cy="25" r="24.5" stroke="#160C87"/>
<path d="M13.84 32V11H21.13C22.87 11 24.36 11.28 25.6 11.84C26.86 12.4 27.82 13.2 28.48 14.24C29.14 15.26 29.47 16.5 29.47 17.96C29.47 19.42 29.14 20.67 28.48 21.71C27.82 22.75 26.86 23.55 25.6 24.11C24.36 24.67 22.87 24.95 21.13 24.95H14.41L14.86 24.47V32H13.84ZM14.86 24.47L14.41 24.02H21.19C23.55 24.02 25.35 23.49 26.59 22.43C27.85 21.37 28.48 19.88 28.48 17.96C28.48 16.04 27.85 14.56 26.59 13.52C25.35 12.46 23.55 11.93 21.19 11.93H14.41L14.86 11.45V24.47Z" fill="#160C87"/>
<path d="M21.84 39V18H29.13C30.87 18 32.36 18.28 33.6 18.84C34.86 19.4 35.82 20.2 36.48 21.24C37.14 22.26 37.47 23.5 37.47 24.96C37.47 26.42 37.14 27.67 36.48 28.71C35.82 29.75 34.86 30.55 33.6 31.11C32.36 31.67 30.87 31.95 29.13 31.95H22.41L22.86 31.47V39H21.84ZM22.86 31.47L22.41 31.02H29.19C31.55 31.02 33.35 30.49 34.59 29.43C35.85 28.37 36.48 26.88 36.48 24.96C36.48 23.04 35.85 21.56 34.59 20.52C33.35 19.46 31.55 18.93 29.19 18.93H22.41L22.86 18.45V31.47Z" fill="#FE7467"/>
</svg>
